<svg width="26" height="26" viewBox="0 0 26 26" fill="none" xmlns="http://www.w3.org/2000/svg">
<g clip-path="url(#clip0_180_542)">
<path d="M24.0261 8.40809V1.94354H17.4492" stroke="#F6B61B" stroke-width="1.5" stroke-linecap="round" stroke-linejoin="round"/>
<path d="M16.3477 9.48551L24.0206 1.94354" stroke="#F6B61B" stroke-width="1.5" stroke-linecap="round" stroke-linejoin="round"/>
<path d="M22.9251 19.0965V22.3287C22.9264 22.6288 22.8638 22.9258 22.7415 23.2007C22.6193 23.4757 22.4399 23.7225 22.2149 23.9253C21.99 24.1282 21.7244 24.2826 21.4352 24.3788C21.146 24.4749 20.8396 24.5106 20.5356 24.4836C17.1626 24.1233 13.9226 22.9904 11.0759 21.1759C8.42742 19.5217 6.18199 17.3146 4.49904 14.7113C2.64655 11.9006 1.4937 8.70038 1.1339 5.37007C1.10651 5.07213 1.14253 4.77184 1.23967 4.48833C1.33682 4.20482 1.49296 3.9443 1.69815 3.72336C1.90334 3.50241 2.15309 3.32588 2.4315 3.20501C2.7099 3.08413 3.01086 3.02157 3.31521 3.02128H6.60363C7.13559 3.01614 7.65131 3.2013 8.05466 3.54225C8.458 3.88321 8.72146 4.35669 8.79591 4.87445C8.93471 5.90885 9.19211 6.9245 9.56321 7.90202C9.71069 8.28765 9.7426 8.70676 9.65518 9.10968C9.56776 9.5126 9.36466 9.88244 9.06994 10.1754L7.67785 11.5437C9.23826 14.2411 11.5104 16.4745 14.2547 18.0083L15.6468 16.6399C15.9448 16.3502 16.3211 16.1506 16.731 16.0647C17.1409 15.9788 17.5673 16.0101 17.9596 16.1551C18.9541 16.5198 19.9874 16.7729 21.0398 16.9093C21.5723 16.9831 22.0585 17.2467 22.4062 17.65C22.7538 18.0533 22.9385 18.5681 22.9251 19.0965Z" stroke="#F6B61B" stroke-width="1.5" stroke-linecap="round" stroke-linejoin="round"/>
</g>
<defs>
<clipPath id="clip0_180_542">
<rect width="24.7808" height="24.7808" fill="white" transform="translate(0.453125 0.905945)"/>
</clipPath>
</defs>
</svg>
