<svg width="43" height="70" viewBox="0 0 43 70" fill="none" xmlns="http://www.w3.org/2000/svg">
<path d="M32.6037 14.7V9.87292L37.7758 12.9208C38.1101 13.0695 38.4886 13.0909 38.838 12.9808C39.1874 12.8707 39.4829 12.637 39.6673 12.3249C39.8517 12.0128 39.9119 11.6445 39.8363 11.2912C39.7606 10.9379 39.5545 10.6248 39.2578 10.4125L36.3976 8.75C42.7256 8.05 44.6819 0 41.4956 0H26.6757C25.3623 0.000964072 24.0864 0.431149 23.0483 1.22301C22.0102 2.01487 21.2688 3.12356 20.9405 4.375C16.0575 4.69728 11.4823 6.83606 8.14356 10.3571C4.80486 13.8782 2.953 18.5176 2.96397 23.3333V49.5833C2.57092 49.5833 2.19398 49.737 1.91605 50.0105C1.63812 50.284 1.48199 50.6549 1.48199 51.0417C1.48199 51.4284 1.63812 51.7994 1.91605 52.0729C2.19398 52.3464 2.57092 52.5 2.96397 52.5V55.4167H1.48199C1.08894 55.4167 0.71199 55.5703 0.434064 55.8438C0.156138 56.1173 0 56.4882 0 56.875V68.5417C0 68.9284 0.156138 69.2994 0.434064 69.5729C0.71199 69.8464 1.08894 70 1.48199 70H7.40993C7.80298 70 8.17992 69.8464 8.45785 69.5729C8.73578 69.2994 8.89191 68.9284 8.89191 68.5417V56.875C8.89191 56.4882 8.73578 56.1173 8.45785 55.8438C8.17992 55.5703 7.80298 55.4167 7.40993 55.4167H5.92794V52.5H11.8559V62.7083C11.8559 63.6659 12.0475 64.6141 12.4199 65.4987C12.7923 66.3834 13.3381 67.1872 14.0262 67.8643C14.7143 68.5414 15.5311 69.0785 16.4302 69.445C17.3292 69.8114 18.2927 70 19.2658 70H34.0857C35.0588 70 36.0223 69.8114 36.9213 69.445C37.8203 69.0785 38.6372 68.5414 39.3253 67.8643C40.0134 67.1872 40.5592 66.3834 40.9315 65.4987C41.3039 64.6141 41.4956 63.6659 41.4956 62.7083V24.7917C41.4927 22.339 40.5925 19.9693 38.9597 18.1162C37.3268 16.2631 35.0706 15.0504 32.6037 14.7ZM5.92794 67.0833H2.96397V58.3333H5.92794V67.0833ZM23.7118 10.85C24.6045 11.386 25.63 11.6695 26.6757 11.6695C27.7215 11.6695 28.747 11.386 29.6397 10.85V14.5833H23.7118V10.85ZM35.5677 5.83333C30.5289 5.83333 33.8486 6.41667 31.7738 2.91667H39.7617C39.4551 3.77002 38.8871 4.50879 38.1359 5.03117C37.3848 5.55354 36.4875 5.83381 35.5677 5.83333ZM26.6757 2.91667C27.262 2.91667 27.835 3.08773 28.3224 3.40821C28.8099 3.7287 29.1898 4.18422 29.4141 4.71717C29.6384 5.25012 29.6971 5.83657 29.5828 6.40235C29.4684 6.96812 29.1861 7.48783 28.7716 7.89573C28.3571 8.30363 27.8289 8.58142 27.254 8.69396C26.679 8.8065 26.0831 8.74874 25.5415 8.52798C24.9999 8.30723 24.537 7.93339 24.2113 7.45375C23.8856 6.9741 23.7118 6.4102 23.7118 5.83333C23.7118 5.05979 24.024 4.31792 24.5799 3.77094C25.1358 3.22396 25.8896 2.91667 26.6757 2.91667ZM5.92794 49.5833V23.3333C5.92959 19.3324 7.45051 15.4765 10.1923 12.5221C12.9341 9.5678 16.6988 7.7283 20.7478 7.36458V14.6563C18.2733 15.0077 16.011 16.2267 14.3773 18.089C12.7435 19.9512 11.8481 22.3314 11.8559 24.7917V49.5833H5.92794ZM34.0857 67.0833H19.2658C18.0867 67.0833 16.9558 66.6224 16.122 65.8019C15.2883 64.9815 14.8199 63.8687 14.8199 62.7083V52.5H38.5316V62.7083C38.5316 63.8687 38.0632 64.9815 37.2294 65.8019C36.3957 66.6224 35.2648 67.0833 34.0857 67.0833ZM38.5316 49.5833H14.8199V24.7917C14.8199 22.8578 15.6005 21.0031 16.9902 19.6357C18.3798 18.2682 20.2645 17.5 22.2298 17.5H31.1217C33.0869 17.5 34.9717 18.2682 36.3613 19.6357C37.7509 21.0031 38.5316 22.8578 38.5316 24.7917V49.5833Z" fill="black"/>
<path d="M34.0857 23.3333H19.2658C18.8728 23.3333 18.4958 23.487 18.2179 23.7605C17.94 24.034 17.7838 24.4049 17.7838 24.7917V45.2083C17.7838 45.5951 17.94 45.966 18.2179 46.2395C18.4958 46.513 18.8728 46.6667 19.2658 46.6667H34.0857C34.4787 46.6667 34.8557 46.513 35.1336 46.2395C35.4115 45.966 35.5677 45.5951 35.5677 45.2083V24.7917C35.5677 24.4049 35.4115 24.034 35.1336 23.7605C34.8557 23.487 34.4787 23.3333 34.0857 23.3333ZM32.6037 43.75H20.7478V26.25H32.6037V43.75Z" fill="black"/>
</svg>
